<mxfile host="app.diagrams.net" agent="Mozilla/5.0 (Windows NT 10.0; Win64; x64) AppleWebKit/537.36 (KHTML, like Gecko) Chrome/140.0.0.0 Safari/537.36" version="28.2.0">
  <diagram name="ページ1" id="LOAC254uAIebQcvNSKyI">
    <mxGraphModel dx="1613" dy="1620" grid="1" gridSize="10" guides="1" tooltips="1" connect="1" arrows="1" fold="1" page="1" pageScale="1" pageWidth="827" pageHeight="1169" background="light-dark(#FFFFFF,#FFFFFF)" math="0" shadow="0">
      <root>
        <mxCell id="0" />
        <mxCell id="1" parent="0" />
        <mxCell id="UiWcro6uWWswaGrqF6_k-2" value="AWS Organization" style="sketch=0;points=[[0,0,0],[0.25,0,0],[0.5,0,0],[0.75,0,0],[1,0,0],[0,1,0],[0.25,1,0],[0.5,1,0],[0.75,1,0],[1,1,0],[0,0.25,0],[0,0.5,0],[0,0.75,0],[1,0.25,0],[1,0.5,0],[1,0.75,0]];points=[[0,0,0],[0.25,0,0],[0.5,0,0],[0.75,0,0],[1,0,0],[0,1,0],[0.25,1,0],[0.5,1,0],[0.75,1,0],[1,1,0],[0,0.25,0],[0,0.5,0],[0,0.75,0],[1,0.25,0],[1,0.5,0],[1,0.75,0]];outlineConnect=0;fontColor=#232F3E;fillColor=#E7157B;strokeColor=#ffffff;dashed=0;verticalLabelPosition=bottom;verticalAlign=top;align=center;html=1;fontSize=14;fontStyle=0;aspect=fixed;shape=mxgraph.aws4.resourceIcon;resIcon=mxgraph.aws4.organizations;" parent="1" vertex="1">
          <mxGeometry x="180" y="20" width="70" height="70" as="geometry" />
        </mxCell>
        <mxCell id="UiWcro6uWWswaGrqF6_k-3" value="" style="sketch=0;outlineConnect=0;fontColor=#232F3E;gradientColor=none;fillColor=#E7157B;strokeColor=none;dashed=0;verticalLabelPosition=bottom;verticalAlign=top;align=center;html=1;fontSize=12;fontStyle=0;aspect=fixed;pointerEvents=1;shape=mxgraph.aws4.organizations_organizational_unit2;" parent="1" vertex="1">
          <mxGeometry x="140" y="140" width="50" height="50" as="geometry" />
        </mxCell>
        <mxCell id="UiWcro6uWWswaGrqF6_k-12" value="Root" style="text;html=1;align=center;verticalAlign=middle;resizable=0;points=[];autosize=1;strokeColor=none;fillColor=none;fontSize=14;" parent="1" vertex="1">
          <mxGeometry x="200" y="150" width="50" height="30" as="geometry" />
        </mxCell>
        <mxCell id="UiWcro6uWWswaGrqF6_k-15" value="" style="group;strokeColor=#FF0080;" parent="1" vertex="1" connectable="0">
          <mxGeometry x="140" y="140" width="150" height="150" as="geometry" />
        </mxCell>
        <mxCell id="UiWcro6uWWswaGrqF6_k-11" value="管理アカウント" style="sketch=0;outlineConnect=0;fontColor=#232F3E;gradientColor=none;fillColor=#E7157B;strokeColor=none;dashed=0;verticalLabelPosition=bottom;verticalAlign=top;align=center;html=1;fontSize=12;fontStyle=0;aspect=fixed;pointerEvents=1;shape=mxgraph.aws4.organizations_account;" parent="UiWcro6uWWswaGrqF6_k-15" vertex="1">
          <mxGeometry x="43" y="50" width="64" height="67.46" as="geometry" />
        </mxCell>
        <mxCell id="UiWcro6uWWswaGrqF6_k-19" value="" style="group;strokeColor=#FF0080;" parent="1" vertex="1" connectable="0">
          <mxGeometry x="-160" y="360" width="160" height="150" as="geometry" />
        </mxCell>
        <mxCell id="UiWcro6uWWswaGrqF6_k-21" value="組織セキュリティ、&lt;br&gt;ログアーカイブアカウント等" style="sketch=0;outlineConnect=0;fontColor=#232F3E;gradientColor=none;fillColor=#E7157B;strokeColor=none;dashed=0;verticalLabelPosition=bottom;verticalAlign=top;align=center;html=1;fontSize=11;fontStyle=0;aspect=fixed;pointerEvents=1;shape=mxgraph.aws4.organizations_account;" parent="UiWcro6uWWswaGrqF6_k-19" vertex="1">
          <mxGeometry x="45.86666666666667" y="50" width="64" height="67.46" as="geometry" />
        </mxCell>
        <mxCell id="UiWcro6uWWswaGrqF6_k-22" value="" style="sketch=0;outlineConnect=0;fontColor=#232F3E;gradientColor=none;fillColor=#E7157B;strokeColor=none;dashed=0;verticalLabelPosition=bottom;verticalAlign=top;align=center;html=1;fontSize=12;fontStyle=0;aspect=fixed;pointerEvents=1;shape=mxgraph.aws4.organizations_organizational_unit2;" parent="UiWcro6uWWswaGrqF6_k-19" vertex="1">
          <mxGeometry width="50" height="50" as="geometry" />
        </mxCell>
        <mxCell id="UiWcro6uWWswaGrqF6_k-23" value="Security OU" style="text;html=1;align=center;verticalAlign=middle;resizable=0;points=[];autosize=1;strokeColor=none;fillColor=none;fontSize=14;" parent="UiWcro6uWWswaGrqF6_k-19" vertex="1">
          <mxGeometry x="45.86666666666667" y="10" width="100" height="30" as="geometry" />
        </mxCell>
        <mxCell id="UiWcro6uWWswaGrqF6_k-24" value="" style="group;strokeColor=#FF0080;" parent="1" vertex="1" connectable="0">
          <mxGeometry x="40" y="360" width="160" height="150" as="geometry" />
        </mxCell>
        <mxCell id="UiWcro6uWWswaGrqF6_k-25" value="Prod,Dev,&lt;br&gt;Networkアカウント等" style="sketch=0;outlineConnect=0;fontColor=#232F3E;gradientColor=none;fillColor=#E7157B;strokeColor=none;dashed=0;verticalLabelPosition=bottom;verticalAlign=top;align=center;html=1;fontSize=12;fontStyle=0;aspect=fixed;pointerEvents=1;shape=mxgraph.aws4.organizations_account;" parent="UiWcro6uWWswaGrqF6_k-24" vertex="1">
          <mxGeometry x="45.86666666666667" y="50" width="64" height="67.46" as="geometry" />
        </mxCell>
        <mxCell id="UiWcro6uWWswaGrqF6_k-26" value="" style="sketch=0;outlineConnect=0;fontColor=#232F3E;gradientColor=none;fillColor=#E7157B;strokeColor=none;dashed=0;verticalLabelPosition=bottom;verticalAlign=top;align=center;html=1;fontSize=12;fontStyle=0;aspect=fixed;pointerEvents=1;shape=mxgraph.aws4.organizations_organizational_unit2;" parent="UiWcro6uWWswaGrqF6_k-24" vertex="1">
          <mxGeometry width="50" height="50" as="geometry" />
        </mxCell>
        <mxCell id="UiWcro6uWWswaGrqF6_k-27" value="Workload OU" style="text;html=1;align=center;verticalAlign=middle;resizable=0;points=[];autosize=1;strokeColor=none;fillColor=none;fontSize=14;" parent="UiWcro6uWWswaGrqF6_k-24" vertex="1">
          <mxGeometry x="40.53333333333333" y="10" width="110" height="30" as="geometry" />
        </mxCell>
        <mxCell id="UiWcro6uWWswaGrqF6_k-28" value="" style="group;strokeColor=#FF0080;" parent="1" vertex="1" connectable="0">
          <mxGeometry x="240" y="360" width="160" height="150" as="geometry" />
        </mxCell>
        <mxCell id="UiWcro6uWWswaGrqF6_k-29" value="Sandbox環境アカウント等" style="sketch=0;outlineConnect=0;fontColor=#232F3E;gradientColor=none;fillColor=#E7157B;strokeColor=none;dashed=0;verticalLabelPosition=bottom;verticalAlign=top;align=center;html=1;fontSize=12;fontStyle=0;aspect=fixed;pointerEvents=1;shape=mxgraph.aws4.organizations_account;" parent="UiWcro6uWWswaGrqF6_k-28" vertex="1">
          <mxGeometry x="45.86666666666667" y="50" width="64" height="67.46" as="geometry" />
        </mxCell>
        <mxCell id="UiWcro6uWWswaGrqF6_k-30" value="" style="sketch=0;outlineConnect=0;fontColor=#232F3E;gradientColor=none;fillColor=#E7157B;strokeColor=none;dashed=0;verticalLabelPosition=bottom;verticalAlign=top;align=center;html=1;fontSize=12;fontStyle=0;aspect=fixed;pointerEvents=1;shape=mxgraph.aws4.organizations_organizational_unit2;" parent="UiWcro6uWWswaGrqF6_k-28" vertex="1">
          <mxGeometry width="50" height="50" as="geometry" />
        </mxCell>
        <mxCell id="UiWcro6uWWswaGrqF6_k-31" value="Sandbox OU" style="text;html=1;align=center;verticalAlign=middle;resizable=0;points=[];autosize=1;strokeColor=none;fillColor=none;fontSize=14;" parent="UiWcro6uWWswaGrqF6_k-28" vertex="1">
          <mxGeometry x="45.53333333333333" y="10" width="100" height="30" as="geometry" />
        </mxCell>
        <mxCell id="UiWcro6uWWswaGrqF6_k-34" value="" style="group;strokeColor=#FF0080;" parent="1" vertex="1" connectable="0">
          <mxGeometry x="440" y="360" width="160" height="150" as="geometry" />
        </mxCell>
        <mxCell id="UiWcro6uWWswaGrqF6_k-35" value="利用停止アカウント等" style="sketch=0;outlineConnect=0;fontColor=#232F3E;gradientColor=none;fillColor=#E7157B;strokeColor=none;dashed=0;verticalLabelPosition=bottom;verticalAlign=top;align=center;html=1;fontSize=12;fontStyle=0;aspect=fixed;pointerEvents=1;shape=mxgraph.aws4.organizations_account;" parent="UiWcro6uWWswaGrqF6_k-34" vertex="1">
          <mxGeometry x="45.86666666666667" y="50" width="64" height="67.46" as="geometry" />
        </mxCell>
        <mxCell id="UiWcro6uWWswaGrqF6_k-36" value="" style="sketch=0;outlineConnect=0;fontColor=#232F3E;gradientColor=none;fillColor=#E7157B;strokeColor=none;dashed=0;verticalLabelPosition=bottom;verticalAlign=top;align=center;html=1;fontSize=12;fontStyle=0;aspect=fixed;pointerEvents=1;shape=mxgraph.aws4.organizations_organizational_unit2;" parent="UiWcro6uWWswaGrqF6_k-34" vertex="1">
          <mxGeometry width="50" height="50" as="geometry" />
        </mxCell>
        <mxCell id="UiWcro6uWWswaGrqF6_k-37" value="Supended OU" style="text;html=1;align=center;verticalAlign=middle;resizable=0;points=[];autosize=1;strokeColor=none;fillColor=none;fontSize=14;" parent="UiWcro6uWWswaGrqF6_k-34" vertex="1">
          <mxGeometry x="40.53333333333333" y="10" width="110" height="30" as="geometry" />
        </mxCell>
        <mxCell id="UiWcro6uWWswaGrqF6_k-46" value="" style="endArrow=none;html=1;rounded=0;" parent="1" edge="1">
          <mxGeometry width="50" height="50" relative="1" as="geometry">
            <mxPoint x="210" y="320" as="sourcePoint" />
            <mxPoint x="210" y="290" as="targetPoint" />
          </mxGeometry>
        </mxCell>
        <mxCell id="UiWcro6uWWswaGrqF6_k-47" value="" style="endArrow=none;html=1;rounded=0;" parent="1" edge="1">
          <mxGeometry width="50" height="50" relative="1" as="geometry">
            <mxPoint x="-80" y="320" as="sourcePoint" />
            <mxPoint x="210" y="320" as="targetPoint" />
          </mxGeometry>
        </mxCell>
        <mxCell id="UiWcro6uWWswaGrqF6_k-48" value="" style="endArrow=none;html=1;rounded=0;" parent="1" edge="1">
          <mxGeometry width="50" height="50" relative="1" as="geometry">
            <mxPoint x="210" y="320" as="sourcePoint" />
            <mxPoint x="520" y="320" as="targetPoint" />
          </mxGeometry>
        </mxCell>
        <mxCell id="UiWcro6uWWswaGrqF6_k-49" value="" style="endArrow=classic;html=1;rounded=0;" parent="1" edge="1">
          <mxGeometry width="50" height="50" relative="1" as="geometry">
            <mxPoint x="-80" y="320" as="sourcePoint" />
            <mxPoint x="-80" y="360" as="targetPoint" />
          </mxGeometry>
        </mxCell>
        <mxCell id="UiWcro6uWWswaGrqF6_k-51" value="" style="endArrow=classic;html=1;rounded=0;" parent="1" edge="1">
          <mxGeometry width="50" height="50" relative="1" as="geometry">
            <mxPoint x="119.58000000000001" y="320" as="sourcePoint" />
            <mxPoint x="119.58000000000001" y="360" as="targetPoint" />
          </mxGeometry>
        </mxCell>
        <mxCell id="UiWcro6uWWswaGrqF6_k-52" value="" style="endArrow=classic;html=1;rounded=0;" parent="1" edge="1">
          <mxGeometry width="50" height="50" relative="1" as="geometry">
            <mxPoint x="319.58000000000004" y="320" as="sourcePoint" />
            <mxPoint x="319.58000000000004" y="360" as="targetPoint" />
          </mxGeometry>
        </mxCell>
        <mxCell id="UiWcro6uWWswaGrqF6_k-53" value="" style="endArrow=classic;html=1;rounded=0;" parent="1" edge="1">
          <mxGeometry width="50" height="50" relative="1" as="geometry">
            <mxPoint x="519.58" y="320" as="sourcePoint" />
            <mxPoint x="519.58" y="360" as="targetPoint" />
          </mxGeometry>
        </mxCell>
        <mxCell id="UiWcro6uWWswaGrqF6_k-54" value="" style="ellipse;whiteSpace=wrap;html=1;aspect=fixed;fillColor=none;strokeColor=none;" parent="1" vertex="1">
          <mxGeometry x="-200" y="280" width="40" height="40" as="geometry" />
        </mxCell>
        <mxCell id="UiWcro6uWWswaGrqF6_k-55" value="" style="ellipse;whiteSpace=wrap;html=1;aspect=fixed;fillColor=none;strokeColor=none;" parent="1" vertex="1">
          <mxGeometry x="200" y="510" width="40" height="40" as="geometry" />
        </mxCell>
        <mxCell id="UiWcro6uWWswaGrqF6_k-56" value="" style="ellipse;whiteSpace=wrap;html=1;aspect=fixed;fillColor=none;strokeColor=none;" parent="1" vertex="1">
          <mxGeometry x="600" y="320" width="40" height="40" as="geometry" />
        </mxCell>
        <mxCell id="UiWcro6uWWswaGrqF6_k-57" value="" style="ellipse;whiteSpace=wrap;html=1;aspect=fixed;fillColor=none;strokeColor=none;" parent="1" vertex="1">
          <mxGeometry x="195" y="-20" width="40" height="40" as="geometry" />
        </mxCell>
      </root>
    </mxGraphModel>
  </diagram>
</mxfile>
